<?xml version="1.0" standalone="no"?>
<!DOCTYPE svg PUBLIC "-//W3C//DTD SVG 20010904//EN"
 "http://www.w3.org/TR/2001/REC-SVG-20010904/DTD/svg10.dtd">
<svg version="1.0" xmlns="http://www.w3.org/2000/svg"
 width="225.000000pt" height="225.000000pt" viewBox="0 0 225.000000 225.000000"
 preserveAspectRatio="xMidYMid meet">
<metadata>
Created by potrace 1.16, written by Peter Selinger 2001-2019
</metadata>
<g transform="translate(0.000000,225.000000) scale(0.100000,-0.100000)"
fill="#000000" stroke="none">
<path d="M215 2236 c-89 -28 -143 -74 -186 -156 l-24 -45 0 -905 0 -905 24
-52 c29 -65 91 -124 157 -149 47 -18 88 -19 949 -19 l900 0 51 27 c63 33 116
91 140 154 18 47 19 90 19 949 l0 900 -24 45 c-32 61 -76 107 -136 138 l-50
27 -890 2 c-700 2 -899 -1 -930 -11z m1206 -440 c184 -33 277 -129 287 -297 8
-133 -44 -242 -141 -294 l-35 -19 51 -23 c104 -48 168 -137 187 -261 35 -224
-97 -396 -342 -446 -62 -13 -148 -16 -438 -16 l-360 0 0 685 0 685 358 0 c254
-1 379 -5 433 -14z"/>
<path d="M935 1416 l0 -156 180 0 c155 0 186 3 222 19 57 26 77 61 78 131 0
68 -17 103 -64 133 -33 20 -50 22 -226 25 l-190 3 0 -155z"/>
<path d="M935 865 l0 -186 205 3 c181 3 210 5 245 23 59 30 85 75 85 149 -1
89 -25 137 -86 167 -46 22 -62 24 -249 27 l-200 3 0 -186z"/>
</g>
</svg>
