<?xml version="1.0" standalone="no"?>
<!DOCTYPE svg PUBLIC "-//W3C//DTD SVG 20010904//EN"
 "http://www.w3.org/TR/2001/REC-SVG-20010904/DTD/svg10.dtd">
<svg version="1.0" xmlns="http://www.w3.org/2000/svg"
 width="225.000000pt" height="225.000000pt" viewBox="0 0 225.000000 225.000000"
 preserveAspectRatio="xMidYMid meet">
<metadata>
Created by potrace 1.16, written by Peter Selinger 2001-2019
</metadata>
<g transform="translate(0.000000,225.000000) scale(0.100000,-0.100000)"
fill="#000000" stroke="none">
<path d="M740 2048 c-53 -12 -142 -68 -170 -108 -43 -60 -60 -113 -60 -187 0
-160 91 -271 255 -308 29 -7 28 -8 -22 -21 -143 -37 -233 -153 -233 -299 0
-79 22 -142 67 -195 82 -96 159 -120 382 -120 l161 0 0 158 c0 87 3 369 7 625
l6 467 -174 -1 c-96 -1 -194 -6 -219 -11z"/>
</g>
</svg>
