<?xml version="1.0" standalone="no"?>
<!DOCTYPE svg PUBLIC "-//W3C//DTD SVG 20010904//EN"
 "http://www.w3.org/TR/2001/REC-SVG-20010904/DTD/svg10.dtd">
<svg version="1.0" xmlns="http://www.w3.org/2000/svg"
 width="225.000000pt" height="225.000000pt" viewBox="0 0 225.000000 225.000000"
 preserveAspectRatio="xMidYMid meet">
<metadata>
Created by potrace 1.16, written by Peter Selinger 2001-2019
</metadata>
<g transform="translate(0.000000,225.000000) scale(0.100000,-0.100000)"
fill="#000000" stroke="none">
<path d="M1258 1693 c11 -20 9 -20 -141 -22 -420 -5 -765 -114 -960 -304 -41
-40 -59 -52 -63 -42 -3 8 -3 19 1 25 3 5 4 10 2 10 -3 0 -19 -22 -36 -48 -107
-168 -58 -363 129 -507 147 -113 344 -192 595 -237 163 -30 517 -32 670 -4
300 55 504 142 651 279 104 97 139 170 139 287 0 73 -4 93 -28 142 -92 188
-345 336 -694 407 -54 11 -139 24 -187 27 -87 7 -88 7 -78 -13z m-113 -132 c5
-8 0 -40 -20 -127 -5 -21 -1 -22 93 -26 64 -3 108 -10 128 -21 36 -18 64 -70
65 -119 1 -31 7 -9 35 120 4 22 6 22 177 22 146 0 178 -3 213 -19 130 -59 139
-252 16 -376 -56 -57 -108 -76 -222 -82 -110 -6 -102 1 -115 -96 -9 -58 -23
-67 -102 -67 -89 0 -88 -3 -59 151 29 149 32 190 7 84 l-16 -70 -83 -3 -82 -3
0 29 c0 16 12 86 26 156 14 70 23 134 20 142 -4 10 -23 14 -69 14 l-64 0 -28
-147 c-39 -208 -30 -193 -120 -193 -87 0 -92 5 -77 75 l10 46 -36 -37 c-54
-56 -111 -76 -223 -82 l-97 -5 -12 -61 c-17 -90 -17 -91 -96 -94 -97 -3 -99
-1 -81 94 9 44 34 174 56 289 22 116 43 220 46 233 l6 24 182 -4 c172 -3 184
-4 221 -27 21 -13 46 -37 56 -53 10 -16 20 -26 23 -21 3 5 15 60 27 123 11 63
23 121 25 128 5 14 161 17 170 3z"/>
<path d="M999 1548 c0 -2 -26 -135 -58 -295 l-57 -293 63 0 c35 0 63 1 63 3 1
1 15 76 33 167 l32 165 52 3 c28 2 66 -1 85 -6 28 -7 34 -13 36 -40 3 -26 -16
-142 -44 -269 -4 -22 -2 -23 60 -23 l64 0 10 48 c44 204 53 273 42 307 -17 53
-55 68 -179 73 l-103 4 6 42 c3 22 9 58 12 79 l7 37 -62 0 c-33 0 -61 -1 -62
-2z"/>
<path d="M455 1368 c-2 -12 -28 -140 -55 -283 -28 -143 -53 -266 -55 -273 -4
-10 11 -12 62 -10 l67 3 15 75 16 75 110 5 c128 7 165 20 218 80 47 51 65 91
73 162 4 43 1 61 -18 98 -39 75 -66 84 -260 88 l-167 4 -6 -24z m295 -93 c27
-24 27 -95 0 -151 -26 -53 -73 -74 -165 -74 -63 0 -65 1 -60 23 8 34 45 219
45 224 0 3 36 3 80 1 58 -3 85 -10 100 -23z"/>
<path d="M586 1258 c-2 -7 -9 -42 -16 -78 -6 -36 -14 -76 -17 -89 l-6 -24 69
6 c60 6 73 10 96 36 30 33 47 114 31 140 -13 21 -151 29 -157 9z"/>
<path d="M1465 1368 c-3 -12 -29 -146 -59 -295 l-53 -273 64 0 c57 0 63 2 68
23 2 12 10 47 17 77 l13 55 110 5 c127 6 165 20 221 82 96 107 95 258 -2 319
-36 22 -50 24 -206 27 l-167 4 -6 -24z m296 -94 c18 -16 20 -27 17 -77 -8
-102 -63 -147 -181 -147 -60 0 -68 2 -63 18 2 9 12 55 21 102 28 149 14 133
105 128 60 -4 85 -9 101 -24z"/>
<path d="M1591 1233 c-8 -32 -31 -149 -31 -160 0 -8 89 -1 119 10 45 16 69 51
78 111 8 63 -8 76 -94 76 l-62 0 -10 -37z"/>
</g>
</svg>
