<?xml version="1.0" standalone="no"?>
<!DOCTYPE svg PUBLIC "-//W3C//DTD SVG 20010904//EN"
 "http://www.w3.org/TR/2001/REC-SVG-20010904/DTD/svg10.dtd">
<svg version="1.0" xmlns="http://www.w3.org/2000/svg"
 width="225.000000pt" height="225.000000pt" viewBox="0 0 225.000000 225.000000"
 preserveAspectRatio="xMidYMid meet">
<metadata>
Created by potrace 1.16, written by Peter Selinger 2001-2019
</metadata>
<g transform="translate(0.000000,225.000000) scale(0.100000,-0.100000)"
fill="#000000" stroke="none">
<path d="M995 2239 c-171 -18 -406 -112 -546 -218 -532 -404 -595 -1184 -136
-1668 39 -41 100 -97 136 -124 85 -64 262 -151 373 -183 374 -107 790 -4 1075
267 102 97 164 182 228 312 67 136 101 253 115 393 21 210 -16 406 -115 607
-64 130 -126 215 -228 312 -179 170 -413 277 -658 303 -112 11 -129 11 -244
-1z m742 -429 c56 -25 86 -72 79 -125 -9 -78 -98 -114 -151 -60 -29 29 -31 51
-8 101 17 35 17 36 -2 50 -55 40 -156 -12 -204 -106 -36 -69 -101 -318 -101
-384 0 -33 153 -16 201 23 l23 19 -18 40 c-18 39 -18 43 -2 67 36 54 103 51
126 -6 24 -57 -16 -129 -93 -167 -55 -28 -157 -45 -209 -37 -33 6 -38 4 -42
-17 -3 -13 -14 -70 -25 -128 -61 -316 -137 -488 -279 -628 -160 -156 -374
-185 -453 -60 -43 70 4 164 87 175 33 4 45 1 72 -22 42 -35 44 -86 6 -126 -30
-31 -27 -59 6 -59 59 0 137 63 183 148 35 64 83 230 112 387 38 206 42 225 66
320 l22 89 -64 58 c-123 112 -227 138 -292 72 -21 -21 -27 -37 -27 -70 0 -39
6 -50 65 -116 36 -40 76 -95 90 -122 85 -169 -60 -339 -274 -324 -162 12 -281
126 -250 240 11 42 33 58 79 58 66 0 100 -76 65 -144 -21 -40 -19 -61 9 -79
87 -57 206 -9 206 83 0 31 -10 48 -66 111 -36 41 -74 92 -85 114 -59 131 -16
251 115 315 59 29 72 32 138 29 91 -5 159 -37 243 -114 33 -30 63 -55 66 -55
4 0 10 12 14 28 13 51 84 187 134 254 59 78 142 145 214 169 70 25 170 24 224
-1z"/>
</g>
</svg>
