<?xml version="1.0" standalone="no"?>
<!DOCTYPE svg PUBLIC "-//W3C//DTD SVG 20010904//EN"
 "http://www.w3.org/TR/2001/REC-SVG-20010904/DTD/svg10.dtd">
<svg version="1.0" xmlns="http://www.w3.org/2000/svg"
 width="225.000000pt" height="225.000000pt" viewBox="0 0 225.000000 225.000000"
 preserveAspectRatio="xMidYMid meet">
<metadata>
Created by potrace 1.16, written by Peter Selinger 2001-2019
</metadata>
<g transform="translate(0.000000,225.000000) scale(0.100000,-0.100000)"
fill="#000000" stroke="none">
<path d="M195 2245 c-5 -2 -22 -6 -36 -9 -38 -8 -121 -75 -115 -93 3 -7 2 -12
-3 -9 -4 3 -14 -7 -22 -22 -19 -37 -27 -1856 -9 -1941 17 -77 84 -144 161
-161 40 -8 302 -10 984 -8 l930 3 40 22 c46 24 75 54 101 103 18 33 19 77 19
995 0 901 -1 962 -18 993 -10 17 -22 32 -27 32 -6 0 -9 6 -8 13 2 6 -5 11 -14
11 -10 -1 -14 4 -11 12 3 7 -9 20 -27 29 -18 9 -29 12 -26 7 4 -6 1 -14 -5
-18 -8 -5 -9 -3 -4 6 6 10 4 12 -10 6 -14 -5 -16 -4 -7 7 9 10 9 14 -1 17 -17
4 -1879 9 -1892 5z m727 -296 c13 -7 31 -21 41 -32 16 -19 17 -68 17 -731 0
-777 3 -740 -58 -765 -20 -8 -108 -11 -304 -9 l-276 3 -21 24 c-12 14 -24 34
-27 45 -2 12 -3 337 -2 723 l3 703 23 15 c12 9 20 20 17 25 -9 14 561 13 587
-1z m994 -11 c18 -12 35 -32 38 -43 11 -38 6 -831 -4 -862 -21 -59 -40 -63
-334 -63 -169 0 -274 4 -289 11 -13 6 -31 24 -41 39 -15 26 -16 73 -16 469 1
242 4 440 8 439 14 -3 42 14 37 22 -3 5 124 9 281 10 283 1 287 0 320 -22z"/>
</g>
</svg>
